<svg id="Capa_1" enable-background="new 0 0 512 512" height="512" viewBox="0 0 512 512" width="512" xmlns="http://www.w3.org/2000/svg"><path d="m181 76h150v120h-150z" fill="#fdbf00"/><path d="m256 76h75v120h-75z" fill="#ff9100"/><path d="m211 76h30v120h-30z" fill="#fff261"/><path d="m271 76h30v120h-30z" fill="#ffda2d"/><path d="m337 224.5-23.999 39-57.001 21.301-66.899 26.199-27.301-20.8 19.5-97.199h149.4z" fill="#ff9100"/><path d="m313.001 263.5-57.001 21.301v-91.8h74.7l6.3 31.499z" fill="#ff641a"/><path d="m353.8 309.2-22.8 38.701-75 28.198-81.599 30.601-32.1-18 19.499-98.5 94.2-35.399 81-30.301z" fill="#fff7cc"/><path d="m331 347.901-75 28.198v-121.298l81-30.301 16.8 84.7z" fill="#ffe6b3"/><path d="m370.6 392.901-29.699 41.398-84.901 20.402-55.201 13.2-77.999 17.999 19.501-97.2 113.699-42.601 97.8-36.899z" fill="#ff9100"/><path d="m370.6 392.901-29.699 41.398-84.901 20.402v-108.602l97.8-36.899z" fill="#ff641a"/><path d="m390.7 494.001h-269.4l1.5-8.101 133.2-50.099 114.6-42.9 6.001 30z" fill="#fff7cc"/><path d="m390.7 494.001h-134.7v-58.2l114.6-42.9 6.001 30z" fill="#ffe6b3"/><path d="m301 437v60h-90v-60c0-8.401 6.599-15 15-15h60c8.401 0 15 6.599 15 15z" fill="#5b5555"/><path d="m301 437v60h-45v-75h30c8.401 0 15 6.599 15 15z" fill="#463f3f"/><path d="m331 76h-150c0-41.4 33.6-76 75-76s75 34.6 75 76z" fill="#ff9100"/><path d="m497 211c-2.3 0-4.585-.527-6.709-1.582l-121-60c-5.083-2.549-8.291-7.734-8.291-13.418s3.208-10.869 8.291-13.418l121-60c4.644-2.329 10.166-2.095 14.59.659 4.424 2.739 7.119 7.559 7.119 12.759v120c0 5.2-2.695 10.02-7.119 12.759-2.402 1.494-5.142 2.241-7.881 2.241z" fill="#ffda2d"/><path d="m15 211c-2.739 0-5.479-.747-7.881-2.241-4.424-2.739-7.119-7.559-7.119-12.759v-120c0-5.2 2.695-10.02 7.119-12.759 4.395-2.754 9.946-2.974 14.59-.659l121 60c5.083 2.549 8.291 7.734 8.291 13.418s-3.208 10.869-8.291 13.418l-121 60c-2.124 1.055-4.409 1.582-6.709 1.582z" fill="#fff261"/><path d="m331 76h-75v-76c41.4 0 75 34.6 75 76z" fill="#ff641a"/><path d="m512 497c0 8.401-6.599 15-15 15h-482c-8.401 0-15-6.599-15-15s6.599-15 15-15h482c8.401 0 15 6.599 15 15z" fill="#766e6e"/><path d="m512 497c0 8.401-6.599 15-15 15h-241v-30h241c8.401 0 15 6.599 15 15z" fill="#5b5555"/><path d="m361 76c0 8.401-6.599 15-15 15h-180c-8.401 0-15-6.599-15-15s6.599-15 15-15h180c8.401 0 15 6.599 15 15z" fill="#5b5555"/><path d="m346 91h-90v-30h90c8.401 0 15 6.599 15 15s-6.599 15-15 15z" fill="#463f3f"/><path d="m361 196c0 8.401-6.599 15-15 15h-180c-8.401 0-15-6.599-15-15s6.599-15 15-15h180c8.401 0 15 6.599 15 15z" fill="#5b5555"/><path d="m361 196c0 8.401-6.599 15-15 15h-90v-30h90c8.401 0 15 6.599 15 15z" fill="#463f3f"/></svg>