<svg id="flat-export" height="512" viewBox="0 0 512 512" width="512" xmlns="http://www.w3.org/2000/svg"><path d="m264 448v-112l-48-96h-128l-8 104-56 120 48-16 51.99489-74.27842a47.99978 47.99978 0 0 0 6.21367-12.34726l21.79144-65.37432 56 56 16 112z" fill="#718799"/><path d="m280 172.23a63.11176 63.11176 0 0 1 -20.47 46.53l-37.96 34.81006-13.57-13.57006h-120v-40a32.004 32.004 0 0 1 -32-32v-24a47.99956 47.99956 0 0 1 48-48h115.42a39.98677 39.98677 0 0 1 32.54 16.75l16.28 22.79a63.04411 63.04411 0 0 1 11.76 36.69z" fill="#ffa100"/><path d="m488 485.04v2.96h-2.96a226.34419 226.34419 0 0 1 -149.04-56l-288-360v-24h24l360 288a226.33534 226.33534 0 0 1 56 149.04z" fill="#4f5dff"/><path d="m24 464v24h80v-16l-32-24z" fill="#d1e4ff"/><path d="m168 104a24 24 0 0 1 -24-24v-8l16-16h32v24a24 24 0 0 1 -24 24z" fill="#ffceb6"/><path d="m192 56 6.63344-13.26688a12.94424 12.94424 0 0 0 1.36656-5.78885 12.94426 12.94426 0 0 0 -12.94426-12.94427h-19.05574a24 24 0 0 0 -24 24v24l16-16z" fill="#c47220"/><path d="m152 160 14.34314-14.34315a5.65688 5.65688 0 0 1 4-1.65685 5.65685 5.65685 0 0 1 5.65686 5.65685v10.34315h24v24a16 16 0 0 1 -16 16h-32z" fill="#ffceb6"/><path d="m88 160h64v40h-64z" fill="#ffa100"/><path d="m488 485.04v2.96h-2.96a226.34419 226.34419 0 0 1 -149.04-56l42.34009-42.34009 11.31982-11.32007 42.34009-42.33984a226.33534 226.33534 0 0 1 56 149.04z" fill="#ffc431"/><path d="m432 416a16.00014 16.00014 0 1 1 -31.43994-4.12988l-22.22-22.21021 11.31982-11.32007 22.21012 22.22022a15.94133 15.94133 0 0 1 20.13 15.43994z" fill="#ffa100"/><path d="m192 224-25.19431 6.29858a8.98484 8.98484 0 0 0 -6.80569 8.71657 8.98484 8.98484 0 0 0 8.98484 8.98485h7.01516l-16 16 13.1675 13.1675a16 16 0 0 0 22.12531.48076l26.27241-24.083z" fill="#ffceb6"/><g fill="#d1e4ff"><path d="m224 464v24h80v-16l-40-24z"/><path d="m480 496h-112v-16h112a8 8 0 0 1 8 8 8 8 0 0 1 -8 8z"/><path d="m336 480h16v16h-16z"/></g><rect fill="#f78e00" height="16" rx="8" width="64" x="88" y="192"/><rect fill="#f78e00" height="16" rx="8" width="64" x="88" y="152"/><path d="m280 172.23a63.11176 63.11176 0 0 1 -20.47 46.53l-37.96 34.81006-29.57-29.57006 80.88-80.87988a62.85378 62.85378 0 0 1 7.12 29.10988z" fill="#ffa100"/><path d="m187.29008 185.31476h70.79045a8.00017 8.00017 0 0 1 8.00017 8.00017 8.00018 8.00018 0 0 1 -8.00018 8.00018h-70.79044a8.00017 8.00017 0 0 1 -8.00017-8.00017 8.00017 8.00017 0 0 1 8.00017-8.00017z" fill="#f78e00" transform="matrix(.707 -.707 .707 .707 -71.472 214.07)"/></svg>